<?xml version="1.0" encoding="UTF-8"?>
<svg id="Layer_2" data-name="Layer 2" xmlns="http://www.w3.org/2000/svg">
  <defs>
    <style>
      .cls-1 {
        fill: #ff98b3;
      }
    </style>
  </defs>
  <g id="Layer_1-2" data-name="Layer 1">
    <path class="cls-1" d="M32.08,8.57c2.48.11,4.36-1.72,7.88-1.8,6.69-.49,10.31,6.37,7.98,12.2-1.06,3.8-4.95,5.65-3.26,8.02,8.97,8.9,2.9,18.53-9,16.14-3.99-1-3.36-1.21-5.55,2.96-1.99,3.69-7.16,5.72-10.8,4.52-3.15-.89-5.42-3.62-6.18-6.79-.65-2.31-.07-5.2-1.87-7.01-2.17-1.75-6.39-1.97-8.43-4.75C-2.22,26.59-.33,17.62,7.06,15.59c2.2-.78,3.59-.53,4.23-1.78.38-1.52-.58-3.46-.07-6.31.13-.79.36-1.57.69-2.3C14.06-.03,21.03-1.47,25.55,1.6c3.63,2.18,4.03,5.67,6.45,6.95l.09.02ZM23.36,18.97c-5.07,3.27-2.77,13.24,4.39,9.59,6.09-2.79,2.04-12.4-3.66-9.96l-.73.37Z"/>
  </g>
</svg>